# ProBuilder 4.4.0
# https://unity3d.com/unity/features/worldbuilding/probuilder
# 2021/06/15 17:09:12

mtllib ./Arrow.mtl
o Arrow

g Arrow_Model
v 0 0 -0.49
v 0 -7.510185E-08 0.14
v 0.02636039 -0.06363962 -0.49
v 0.02636039 -0.06363969 0.14
v 0.09 -0.09000001 -0.49
v 0.09 -0.09000009 0.14
v 0.1536396 -0.06363962 -0.49
v 0.1536396 -0.06363969 0.14
v 0.18 7.868051E-09 -0.49
v 0.18 -6.72338E-08 0.14
v 0.1536396 0.06363961 -0.49
v 0.1536396 0.06363954 0.1400001
v 0.09 0.09000001 -0.49
v 0.09 0.08999994 0.1400001
v 0.0263604 0.06363963 -0.49
v 0.0263604 0.06363955 0.1400001
v 0.09 0 -0.49
v 0.2526493 -7.510184E-08 0.14
v 0.2050105 0.1150104 0.14
v -0.07264934 -7.510184E-08 0.14
v -0.02501047 -0.1150105 0.14
v 0.08999997 -0.1626495 0.14
v 0.2050105 -0.1150105 0.14
v 0.08999997 0.1626493 0.14
v -0.02501047 0.1150104 0.14
v 0.08999997 -1.184627E-07 0.503737

vt 0 0
vt 0 0.7
vt 0.07653669 0
vt 0.07653669 0.7
vt 0.05411961 0
vt 0.05411961 0.7
vt 0.1306563 0
vt 0.1306563 0.7
vt -0.07653669 0
vt -0.07653669 0.7
vt -0.1306563 0
vt -0.1306563 0.7
vt -0.05411961 0
vt -0.05411961 0.7
vt 0.1 0
vt 0.02928932 0.07071068
vt 0.1 0.1
vt 0.1707107 0.07071068
vt 0.2 -8.742278E-09
vt 0.1707107 -0.07071067
vt 0.1 -0.1
vt 0.02928934 -0.07071069
vt 0.1999995 2.053563E-07
vt 0.2807209 2.140986E-07
vt 0.2277889 -0.1277892
vt -0.08072098 -2.140983E-07
vt -0.0277889 0.1277892
vt 0.1000002 0.09999949
vt 0.1000002 0.180721
vt 0.09999979 0.09999949
vt 0.09999975 0.180721
vt 0.2277892 0.1277889
vt 0.09999979 -0.09999949
vt 0.09999975 -0.180721
vt -0.0277889 -0.1277892
vt 0.1000002 -0.09999949
vt 0.1000002 -0.180721
vt -0.1074273 0.5479376
vt 0.03089088 0.5479376
vt -0.03826829 0.9852204
vt -0.03089077 0.6184894
vt 0.1074274 0.6184894
vt 0.03826832 1.055772
vt 0.02322885 0.5978252
vt 0.1615471 0.5978252
vt 0.09238791 1.035108
vt 0.02322875 0.5686017
vt 0.161547 0.5686017
vt 0.09238791 1.005885
vt -0.03089088 0.5479376
vt 0.1074273 0.5479376
vt 0.03826829 0.9852204
vt -0.161547 0.5686017
vt -0.02322875 0.5686017
vt -0.09238791 1.005885
vt -0.1074274 0.6184894
vt 0.03089077 0.6184894
vt -0.03826832 1.055772
vt -0.1615471 0.5978252
vt -0.02322885 0.5978252
vt -0.09238791 1.035108

vn -0.9 5.806405E-08 6.921773E-15
vn -0.6363961 -0.6363962 -7.586432E-08
vn 4.354803E-08 -0.9000001 -1.072884E-07
vn 0.6363961 -0.6363962 -7.586432E-08
vn 0.9 5.806405E-08 6.921773E-15
vn 0.6363961 0.6363962 7.586433E-08
vn 2.903202E-08 0.9000001 1.072884E-07
vn -0.6363961 0.6363962 7.586433E-08
vn 0 1.072884E-07 -0.9000001
vn 0.768494 0.3183202 0.3436413
vn -0.7684938 -0.3183206 0.3436412
vn -0.3183208 -0.7684938 0.3436412
vn 0.3183207 -0.7684939 0.3436413
vn 0.768494 -0.3183203 0.3436413
vn 0.3183207 0.7684938 0.3436414
vn -0.7684938 0.3183205 0.3436413
vn -0.3183208 0.7684938 0.3436414

usemtl Default-Material
f 1/1/9 17/15/9 3/16/9
f 3/16/9 17/15/9 5/17/9
f 5/17/9 17/15/9 7/18/9
f 7/18/9 17/15/9 9/19/9
f 9/19/9 17/15/9 11/20/9
f 11/20/9 17/15/9 13/21/9
f 13/21/9 17/15/9 15/22/9
f 15/22/9 17/15/9 1/1/9
f 18/38/10 19/39/10 26/40/10
f 20/41/11 21/42/11 26/43/11
f 21/44/12 22/45/12 26/46/12
f 22/47/13 23/48/13 26/49/13
f 23/50/14 18/51/14 26/52/14
f 19/53/15 24/54/15 26/55/15
f 25/56/16 20/57/16 26/58/16
f 24/59/17 25/60/17 26/61/17
f 4/4/2 2/2/1 1/1/1
f 1/1/1 3/3/2 4/4/2
f 6/8/3 4/6/2 3/5/2
f 3/5/2 5/7/3 6/8/3
f 8/8/4 6/6/3 5/5/3
f 5/5/3 7/7/4 8/8/4
f 10/4/5 8/2/4 7/1/4
f 7/1/4 9/3/5 10/4/5
f 12/2/6 10/10/5 9/9/5
f 9/9/5 11/1/6 12/2/6
f 14/14/7 12/12/6 11/11/6
f 11/11/6 13/13/7 14/14/7
f 16/14/8 14/12/7 13/11/7
f 13/11/7 15/13/8 16/14/8
f 2/2/1 16/10/8 15/9/8
f 15/9/8 1/1/1 2/2/1
f 18/24/9 10/23/9 12/20/9
f 12/20/9 19/25/9 18/24/9
f 20/26/9 2/1/9 4/16/9
f 4/16/9 21/27/9 20/26/9
f 21/27/9 4/16/9 6/28/9
f 6/28/9 22/29/9 21/27/9
f 22/31/9 6/30/9 8/18/9
f 8/18/9 23/32/9 22/31/9
f 23/32/9 8/18/9 10/23/9
f 10/23/9 18/24/9 23/32/9
f 19/25/9 12/20/9 14/33/9
f 14/33/9 24/34/9 19/25/9
f 25/35/9 16/22/9 2/1/9
f 2/1/9 20/26/9 25/35/9
f 24/37/9 14/36/9 16/22/9
f 16/22/9 25/35/9 24/37/9

